<svg xmlns="http://www.w3.org/2000/svg" width="512" height="512" viewBox="0 0 512 512" version="1.1">
	<path d="M 314.061 48.588 C 308.071 51.599, 303.885 54.989, 292.561 66 C 284.828 73.520, 277.375 80.277, 276 81.016 C 272.578 82.855, 244.940 83.550, 206.500 82.764 C 193.127 82.490, 188.860 82.066, 186.500 80.777 C 184.850 79.876, 177.875 73.431, 171 66.456 C 155.692 50.924, 148.693 46, 141.922 46 C 133.353 46, 129.497 51.442, 127.041 67 C 124.854 80.858, 126.299 110.200, 129.967 126.402 C 131.063 131.242, 131.026 131.377, 127.040 137.058 C 120.012 147.078, 115.483 158.495, 113.510 171.174 L 112.938 174.847 106.219 175.452 C 91.597 176.767, 74.926 179.373, 63.500 182.129 C 49.310 185.551, 33 190.953, 33 192.231 C 33 192.728, 33.788 192.887, 34.750 192.584 C 69.310 181.716, 91.753 177.649, 117.500 177.589 C 136.339 177.545, 142.819 178.284, 162.339 182.698 C 173.244 185.165, 174.623 185.273, 179.839 184.077 C 191.473 181.407, 196.712 181.568, 207.123 184.917 C 217.900 188.384, 221.597 190.791, 223.635 195.668 C 225.466 200.052, 226.997 199.872, 230.014 194.918 C 232.959 190.082, 237.991 186.940, 247.355 184.088 C 255.865 181.496, 264.163 181.450, 274.295 183.938 L 282.091 185.852 291.795 183.503 C 309.910 179.119, 322.281 177.703, 342 177.757 C 368.480 177.829, 388.179 181.152, 415.804 190.208 C 436.526 197.002, 438.058 195.292, 417.680 188.114 C 398.569 181.382, 377.520 177.204, 358.269 176.323 L 345.038 175.718 344.480 172.109 C 341.993 156.017, 339.595 148.466, 333.524 137.609 L 329.975 131.263 331.955 122.882 C 336.103 105.319, 337.291 95.693, 337.367 79 C 337.451 60.409, 335.967 53.259, 331.044 48.543 C 326.578 44.264, 322.643 44.274, 314.061 48.588 M 140.180 64.503 C 138.448 68.306, 137.685 84.525, 138.823 93.368 L 139.836 101.237 135.918 104.963 C 133.763 107.013, 132 109.310, 132 110.068 C 132 110.825, 132.741 110.332, 133.646 108.973 C 135.420 106.308, 137.948 104, 139.091 104 C 139.481 104, 140.377 106.362, 141.083 109.250 C 142.173 113.715, 142.456 114.127, 142.977 112.003 C 143.422 110.185, 145.209 108.729, 149.537 106.653 C 156.046 103.533, 160.225 103.469, 166.102 106.401 C 170.219 108.455, 170.873 107.832, 167.437 105.129 C 161.531 100.483, 153.951 100.581, 147.192 105.390 C 143.457 108.047, 142.360 108.110, 143.318 105.613 C 143.629 104.802, 146.385 103.350, 149.442 102.387 C 152.499 101.423, 155 100.208, 155 99.686 C 155 98.730, 149.229 99.215, 145.500 100.483 C 143.556 101.144, 143.553 101.120, 145.385 99.623 C 149.524 96.240, 162.706 96.788, 167.669 100.548 C 168.676 101.312, 169.898 101.951, 170.385 101.968 C 170.872 101.986, 170.197 101.164, 168.885 100.141 C 162.089 94.845, 154.542 93.134, 147.970 95.398 C 142.490 97.286, 141.741 96.738, 146.137 94.057 C 151.626 90.709, 158.145 90.187, 164.500 92.584 C 166.463 93.325, 166.465 93.300, 164.628 91.206 C 161.781 87.962, 154.745 85.638, 149.758 86.295 L 145.500 86.856 148 84.813 C 150.090 83.105, 151.451 82.856, 156.297 83.295 C 161.314 83.748, 161.931 83.621, 160.877 82.352 C 159.484 80.673, 153.908 78.086, 149.500 77.072 L 146.500 76.382 148.821 75.118 C 150.564 74.169, 151.912 74.122, 154.233 74.931 C 155.933 75.524, 157.501 75.832, 157.718 75.615 C 157.935 75.399, 155.266 72.247, 151.787 68.611 C 144.899 61.411, 142.049 60.402, 140.180 64.503 M 312.323 68.366 L 305.500 74.852 309.750 74.295 C 312.575 73.924, 314 74.116, 314 74.868 C 314 75.491, 313.307 76, 312.460 76 C 310.039 76, 303.741 79.547, 301.057 82.422 L 298.615 85.039 301.557 83.599 C 305.651 81.595, 315 81.093, 315 82.876 C 315 83.358, 312.606 83.951, 309.680 84.194 C 306.754 84.436, 303.266 85.409, 301.930 86.356 C 299.504 88.074, 299.507 88.076, 303.680 87.422 C 308.011 86.743, 317.564 88.485, 318.587 90.141 C 318.939 90.710, 318.053 90.769, 316.334 90.290 C 311.041 88.814, 301.609 89.368, 298.617 91.330 C 294.979 93.715, 295.592 94.145, 300.762 92.832 C 305.499 91.630, 312.816 92.414, 315.556 94.418 C 317.137 95.573, 316.294 95.758, 309.312 95.788 C 300.811 95.825, 297.999 96.772, 292.500 101.444 L 289.500 103.993 294 101.576 C 299.745 98.490, 306.770 97.439, 311.411 98.971 C 315.945 100.467, 317.115 102.173, 313.050 101.360 C 311.096 100.969, 310 101.154, 310 101.875 C 310 102.494, 310.850 103, 311.889 103 C 312.928 103, 314.841 103.865, 316.139 104.923 C 318.477 106.828, 318.450 106.829, 313.230 105.070 C 310.332 104.093, 307.704 103.038, 307.391 102.724 C 306.548 101.881, 299.900 103.081, 296.813 104.634 C 292.149 106.981, 292.725 108.009, 297.516 105.890 C 302.623 103.631, 305.331 103.885, 313.150 107.355 C 316.458 108.824, 318.087 110.212, 318.518 111.930 C 319.336 115.186, 320.699 113.105, 321.584 107.250 C 321.938 104.912, 322.579 103, 323.010 103 C 323.441 103, 325.189 104.591, 326.896 106.535 C 328.603 108.479, 330 109.786, 330 109.439 C 330 108.481, 325.880 102.656, 324.266 101.332 C 323.117 100.390, 323.074 99.730, 324.044 97.918 C 325.896 94.458, 326.485 71.365, 324.846 66.500 C 322.765 60.322, 320.415 60.673, 312.323 68.366 M 169 148.647 C 163.895 150.311, 160 152.494, 160 153.692 C 160 158.514, 167.239 166.937, 173.718 169.652 C 179.232 171.962, 188.845 171.380, 194.885 168.370 C 197.788 166.924, 200.399 165.124, 200.688 164.370 C 201.523 162.195, 202.658 162.760, 204.009 166.021 C 205.681 170.058, 207.263 170.927, 206.398 167.334 C 205.154 162.166, 202.119 157.258, 197.972 153.708 C 191.484 148.155, 190.322 148.268, 189.539 154.532 C 189.176 157.442, 187.893 161.776, 186.689 164.162 C 184.893 167.721, 183.936 168.555, 181.358 168.805 C 178.805 169.053, 177.800 168.528, 176.006 166.009 C 173.304 162.214, 172.451 156.647, 173.815 151.706 C 174.771 148.246, 174.695 148.005, 172.669 148.079 C 171.476 148.122, 169.825 148.378, 169 148.647 M 179 152.418 C 179 158.104, 179.768 160, 182.072 160 C 184.329 160, 186 157.135, 186 153.266 C 186 149.803, 184.391 148, 181.300 148 C 179.247 148, 179 148.475, 179 152.418 M 273.015 148.970 C 271.702 149.800, 271.702 150.405, 273.015 154.204 C 274.232 157.724, 274.952 158.500, 277 158.500 C 279.010 158.500, 279.564 157.937, 279.828 155.629 C 280.376 150.835, 279.222 147.998, 276.731 148.015 C 275.504 148.024, 273.832 148.453, 273.015 148.970 M 284 153.556 C 284 163.571, 279.530 170.032, 273.426 168.839 C 270.880 168.341, 267.703 161.458, 267.195 155.340 C 266.677 149.096, 265.484 148.631, 260.239 152.631 C 256.175 155.731, 250.985 163.522, 251.036 166.446 C 251.069 168.317, 251.274 168.253, 253.335 165.736 L 255.598 162.971 258.501 166.002 C 266.198 174.034, 286.776 172.455, 293.996 163.278 C 296.034 160.687, 299 154.633, 299 153.063 C 299 151.928, 292.269 149.067, 287.986 148.382 L 284 147.744 284 153.556 M 114.375 180.203 C 113.521 181.585, 114.856 189.269, 117.067 195.695 C 119.432 202.570, 119.475 202, 116.591 202 C 111.702 202, 86.850 208.937, 75.355 213.511 C 60.880 219.270, 37.837 231.857, 41.564 231.968 C 42.149 231.986, 49.574 228.481, 58.064 224.181 C 79.568 213.288, 102.585 205.926, 126 202.450 C 131.775 201.593, 145.838 200.627, 157.250 200.304 C 176.318 199.764, 181.247 199.082, 176 197.710 C 174.900 197.423, 174 196.525, 174 195.716 C 174 192.712, 176.972 191.695, 186.036 191.597 C 190.966 191.544, 194.999 191.162, 195 190.750 C 195 189.859, 195.801 189.983, 184 189.043 C 178.775 188.627, 169.550 187.096, 163.500 185.641 C 146.587 181.574, 115.644 178.148, 114.375 180.203 M 332.500 179.704 C 320.606 180.521, 303.282 183.217, 292.805 185.882 C 285.932 187.629, 277.580 188.966, 271.500 189.290 C 260.723 189.866, 256.798 190.748, 259.151 192.065 C 259.904 192.486, 262.766 192.396, 265.510 191.865 C 268.255 191.334, 272.831 191.175, 275.680 191.513 C 284.071 192.507, 285.708 196.986, 277.691 197.015 C 275.386 197.024, 272.856 197.438, 272.069 197.936 C 269.749 199.404, 275.518 199.902, 300 200.343 C 331.401 200.910, 347.695 204.437, 382.388 218.178 C 394.927 223.144, 398.194 222.739, 386.974 217.609 C 374.823 212.053, 360.997 207.202, 349.684 204.524 C 344.284 203.246, 339.703 202.036, 339.502 201.836 C 339.302 201.635, 339.943 198.553, 340.927 194.986 C 341.911 191.419, 343.032 186.363, 343.419 183.750 L 344.123 179 340.811 179.180 C 338.990 179.279, 335.250 179.515, 332.500 179.704 M 217.250 180.662 C 214.969 181.583, 215.954 183.608, 219.507 185.302 C 221.436 186.222, 223.895 188.423, 224.972 190.194 L 226.929 193.413 228.478 189.707 C 229.496 187.270, 230.680 186, 231.932 186 C 235.111 186, 237 184.882, 237 183 C 237 182.018, 236.288 180.941, 235.418 180.607 C 233.548 179.889, 219.056 179.934, 217.250 180.662 M 473.081 185.533 C 466.359 187.409, 462.681 189.662, 457.316 195.189 C 447.100 205.714, 443.692 220.456, 447.991 235.522 C 450.232 243.372, 452.700 267.793, 451.541 270.642 C 450.978 272.026, 450.296 270.715, 448.866 265.500 C 444.768 250.551, 430.968 227.027, 422.516 220.580 C 417.693 216.901, 416.639 217.912, 417.258 225.621 L 417.767 231.969 413.764 226.941 C 411.562 224.176, 409.252 222.080, 408.630 222.285 C 408.009 222.489, 407.365 224.711, 407.200 227.221 C 406.938 231.193, 406.645 231.720, 404.944 231.275 C 402.676 230.682, 400 232.566, 400 234.756 C 400 235.588, 403.170 239.605, 407.044 243.683 C 424.456 262.013, 431.953 281.816, 431.961 309.500 C 431.969 334.379, 425.584 354.628, 411.033 375.873 C 405.533 383.902, 395.280 395.613, 394.463 394.797 C 394.290 394.623, 395.094 391.785, 396.251 388.491 C 398.848 381.092, 399.299 363.814, 397.061 357.500 C 396.189 355.042, 395.594 349.067, 395.517 342 C 395.406 331.827, 395.016 329.403, 392.139 321 C 385.955 302.939, 378.851 292.263, 360.576 273.567 C 352.939 265.754, 350.135 263.622, 342.895 260.125 C 335.189 256.403, 334.095 255.526, 332.430 251.734 C 331.324 249.215, 326.814 243.776, 321.292 238.303 L 312.014 229.106 317.905 224.573 C 325.101 219.036, 335.324 207.924, 334.229 206.829 C 332.693 205.293, 322.897 204.052, 304.272 203.035 C 293.947 202.471, 284.503 202.008, 283.284 202.005 C 282.066 202.002, 279.628 203.409, 277.866 205.131 C 276.105 206.852, 272.646 209.154, 270.180 210.244 L 265.697 212.228 280.598 217.937 C 297.013 224.227, 302.955 227.036, 304.965 229.458 C 306.821 231.694, 304.839 233.031, 292.350 237.968 C 280.760 242.550, 262.705 247.189, 249.403 249.002 C 237.677 250.601, 210.649 249.815, 198 247.508 C 181.903 244.572, 161.057 237.813, 153.161 232.969 C 150.330 231.233, 150.016 230.686, 151.098 229.382 C 152.816 227.311, 160.449 223.521, 171.432 219.284 C 176.419 217.359, 181.711 215.161, 183.190 214.398 L 185.880 213.011 180.263 207.393 L 174.645 201.776 160.073 202.448 C 152.058 202.818, 141.675 203.551, 137 204.078 C 121.164 205.863, 120.553 206.359, 126.373 212.710 L 129.747 216.392 118.559 221.946 C 92.880 234.695, 70.735 253.205, 55.322 274.802 C 49.738 282.627, 41.699 297.597, 42.228 299.185 C 42.445 299.835, 44.347 297.247, 46.454 293.434 C 58.689 271.295, 76.535 251.756, 97.862 237.149 C 108.825 229.640, 130.920 217.841, 132.387 218.712 C 135.032 220.283, 140.965 225.575, 140.982 226.378 C 140.992 226.862, 138.174 230.252, 134.720 233.914 C 121.688 247.728, 109.888 267.889, 106.554 282.034 C 104.725 289.792, 104.580 298.782, 106.164 306.114 C 106.805 309.076, 107.245 316.225, 107.142 322 C 107.038 327.839, 107.556 335.274, 108.308 338.750 C 109.432 343.943, 109.439 346.057, 108.351 351.250 C 106.562 359.789, 106.671 375.483, 108.584 384.792 C 111.343 398.216, 118.522 412.773, 127.638 423.430 C 129.487 425.591, 131 427.890, 131 428.537 C 131 429.291, 128.217 429.911, 123.250 430.263 C 102.338 431.744, 88.555 442.952, 88.524 458.500 C 88.507 466.783, 91.412 471.362, 98.911 474.879 C 104.318 477.415, 105.102 477.499, 123 477.475 L 141.500 477.451 143.500 481.474 C 147.362 489.243, 157.007 492.750, 171.459 491.641 C 181.812 490.847, 189.022 487.471, 192.792 481.652 C 194.271 479.368, 195.935 477.169, 196.491 476.765 C 197.046 476.361, 201.819 476.024, 207.098 476.015 L 216.697 476 218.205 479.840 C 221.393 487.956, 229.588 491.451, 245.500 491.480 C 255.257 491.498, 257.065 491.217, 261.500 489 C 265.441 487.030, 266.999 485.494, 268.856 481.750 C 271.158 477.108, 271.318 477, 275.856 476.985 C 278.410 476.977, 281.625 476.383, 283 475.666 C 285.162 474.538, 286.109 474.641, 290 476.431 C 294.107 478.319, 296.335 478.497, 315.500 478.462 C 332.540 478.432, 337.726 478.086, 343 476.628 C 360.870 471.691, 370.207 460.611, 365.663 449.737 C 362.208 441.468, 351.712 433.556, 340.885 431.060 C 334.454 429.577, 321.432 429.810, 314.098 431.539 C 296.668 435.647, 283.191 448.819, 282.931 462 C 282.845 466.361, 282.809 466.410, 281.785 463.593 C 280.321 459.564, 282.192 452.035, 286.051 446.425 C 290.322 440.218, 298.609 434.285, 307.201 431.284 C 317.011 427.857, 333.541 426.993, 343 429.412 C 354.811 432.433, 365.129 440.666, 366.700 448.323 C 367.202 450.771, 367.627 451.066, 369.890 450.538 C 374.570 449.445, 394.316 439.219, 404.019 432.861 C 416.520 424.670, 434.450 406.774, 442.904 394.047 C 454.644 376.374, 462.669 357.728, 468.532 334.500 C 473.554 314.604, 474.959 302.983, 475.908 273.500 C 477.046 238.143, 478.102 235.119, 491.954 227.525 C 502.468 221.762, 507 215.397, 507 206.395 C 507 198.570, 500.618 189.827, 492.397 186.392 C 487.193 184.218, 479.087 183.858, 473.081 185.533 M 185.667 197.667 C 184.172 199.161, 185.191 200, 188.500 200 C 190.944 200, 192 199.548, 192 198.500 C 192 196.971, 187.018 196.315, 185.667 197.667 M 258.244 200.250 C 258.725 201.714, 266 202.574, 266 201.167 C 266 199.946, 263.528 199, 260.335 199 C 258.781 199, 257.989 199.474, 258.244 200.250 M 195.537 206.940 C 194.044 209.357, 204.947 215.940, 210.500 215.975 C 212.150 215.985, 216.193 214.725, 219.485 213.174 L 225.471 210.354 230.837 213.177 C 237.068 216.455, 241.804 216.728, 247.500 214.137 C 251.600 212.272, 254.723 209.390, 253.725 208.392 C 253.417 208.084, 250.435 208.828, 247.099 210.044 C 240.099 212.596, 236.487 212.250, 230.788 208.478 C 226.128 205.395, 225.880 205.400, 220.248 208.701 C 213.752 212.507, 206.696 212.526, 201.741 208.750 C 197.916 205.834, 196.479 205.415, 195.537 206.940 M 179.295 247.326 C 180.395 250.193, 179.060 251.755, 171.477 256.482 C 152.410 268.366, 140.057 290.198, 140.015 312.090 C 139.986 327.025, 146.648 345.173, 155.917 355.408 C 161.825 361.933, 161.774 364.120, 155.792 360.773 C 150.910 358.041, 142.910 349.377, 138.920 342.500 C 134.344 334.614, 135.396 340.167, 140.444 350.542 C 143.656 357.146, 146.830 361.757, 151.902 367.188 C 158.665 374.429, 169.443 382.891, 170.525 381.808 C 170.814 381.519, 170.103 379.082, 168.946 376.392 C 167.788 373.701, 165.798 367.675, 164.524 363 C 163.249 358.325, 161.887 353.712, 161.496 352.750 C 158.787 346.074, 172.235 357.946, 179.903 369 C 188.217 380.984, 191.838 391.698, 192.718 406.908 C 193.370 418.187, 192.707 419.137, 189.035 412.185 C 186.370 407.139, 186.519 409.372, 190.002 426.627 C 191.654 434.807, 193.681 445.550, 194.507 450.500 C 195.334 455.450, 196.254 460.967, 196.552 462.760 C 197.023 465.589, 197.344 465.886, 198.981 465.010 C 201.479 463.673, 207.915 463.726, 211.902 465.116 C 213.662 465.729, 215.360 465.974, 215.675 465.659 C 216.317 465.016, 225.507 420.202, 226.551 412.622 C 227.332 406.950, 225.491 406.867, 224.429 412.526 C 223.210 419.026, 221.762 415.052, 222.461 407.126 C 224.555 383.396, 231.461 365.692, 243.535 353.104 C 247.546 348.922, 251.083 345.754, 251.394 346.064 C 252.401 347.065, 248.875 363.201, 245.869 371.355 C 244.262 375.714, 243.122 379.455, 243.335 379.668 C 243.988 380.321, 258.620 363.450, 263.017 356.974 C 268.470 348.945, 273.555 338.043, 275.590 330.019 C 277.921 320.830, 277.136 303.748, 274.004 295.500 C 271.705 289.447, 267.031 280.636, 266.435 281.232 C 266.257 281.409, 266.564 283.565, 267.116 286.022 C 268.400 291.736, 266.792 301.449, 263.362 308.701 C 259.674 316.496, 254.092 323.045, 244.773 330.511 C 222.125 348.655, 212.985 361.492, 209.896 379.500 C 208.454 387.909, 207.002 390.135, 206.994 383.950 C 206.974 368.886, 201.181 347.623, 192.908 332.250 C 188.034 323.193, 187.611 321.433, 191.057 324.552 C 192.646 325.989, 193.144 325.412, 197.847 316.689 C 206.143 301.300, 208.424 293.508, 208.442 280.500 C 208.455 271.137, 208.113 268.732, 206.145 264.341 C 204.323 260.278, 204.062 258.752, 204.916 257.157 C 206.910 253.432, 206.227 252.212, 201.750 251.501 C 197.074 250.758, 183.174 247.388, 180.405 246.325 C 179.055 245.807, 178.800 246.037, 179.295 247.326 M 299.015 258.191 C 299.023 258.361, 299.679 260.300, 300.471 262.500 C 303.509 270.932, 301.918 287.615, 297.020 298.687 C 294.213 305.033, 296.222 303.936, 299.841 297.147 C 303.880 289.568, 306.366 278.954, 305.554 272.754 C 304.876 267.581, 301.809 259.618, 300.083 258.551 C 299.487 258.183, 299.007 258.021, 299.015 258.191 M 341 269.067 C 341 269.653, 342.158 271.652, 343.574 273.508 C 349.381 281.121, 352.445 294.962, 350.954 306.839 C 349.977 314.622, 347.050 323.557, 341.565 335.500 C 336.880 345.701, 337.996 344.502, 347.860 328.737 C 357.878 312.727, 360.412 305.586, 359.787 295.130 C 359.215 285.560, 357.104 281.305, 349.180 273.750 C 343.343 268.186, 341 266.844, 341 269.067 M 244.784 355.568 C 240.030 360.783, 234.578 369.841, 231.919 376.940 C 229.991 382.087, 225.757 400.090, 226.337 400.671 C 226.696 401.029, 239.281 379.589, 242.397 373.309 C 244.991 368.084, 249.418 353.542, 248.821 352.208 C 248.644 351.814, 246.828 353.326, 244.784 355.568 M 302.508 353.500 C 307.967 367.983, 306.352 385.640, 297.900 403.866 C 295.767 408.467, 292.422 414.542, 290.467 417.366 L 286.912 422.500 290.818 418.277 C 295.217 413.521, 301.139 402.815, 304.047 394.362 C 307.439 384.505, 308.476 372.414, 306.684 363.627 C 305.832 359.449, 304.375 355.012, 303.445 353.766 C 302 351.830, 301.864 351.791, 302.508 353.500 M 164.562 358.256 C 166.886 365.781, 169.508 371.360, 172.950 376.104 C 175.103 379.072, 179.821 385.752, 183.433 390.948 C 187.045 396.145, 190 399.870, 190 399.227 C 190 396.910, 183.978 381.623, 180.899 376.122 C 177.225 369.558, 167.609 357.448, 165.397 356.599 C 164.200 356.140, 164.019 356.499, 164.562 358.256 M 370.349 363.954 C 359.264 369.164, 351.201 374.825, 342.684 383.378 C 335.065 391.029, 324.440 405.280, 320.324 413.367 L 317.848 418.234 327.432 413.189 C 352.835 399.815, 369.683 383.970, 376.601 366.945 C 377.980 363.551, 378.964 360.631, 378.789 360.455 C 378.613 360.280, 374.815 361.854, 370.349 363.954 M 138.082 446.601 C 138.037 447.206, 138.483 449.086, 139.073 450.778 C 139.662 452.470, 140.547 456.025, 141.038 458.677 L 141.930 463.500 141.561 457.978 C 141.240 453.185, 138.305 443.586, 138.082 446.601 M 272.079 454.583 C 272.127 455.748, 272.364 455.985, 272.683 455.188 C 272.972 454.466, 272.936 453.603, 272.604 453.271 C 272.272 452.939, 272.036 453.529, 272.079 454.583 M 271.158 459 C 271.158 460.375, 271.385 460.938, 271.662 460.250 C 271.940 459.563, 271.940 458.438, 271.662 457.750 C 271.385 457.063, 271.158 457.625, 271.158 459" stroke="none" fill="black" fill-rule="evenodd"/>
</svg>